PathFileType	4	(X/Y/Z)	c:/Users/goper/Files/vsCode/490R/osim_files/A06/A06_Slow_02.trc
DataRate	CameraRate	NumFrames	NumMarkers	Units                	OrigDataRate	OrigDataStartFrame	OrigNumFrames
120.00	120.00	10	36	mm	120.0	1010	1154
                Frame#	Time	LPSIS			LASIS			LTH1			LTH2			LTH3			LTH4			LLFE			LMFE			LSH1			LSH2			LSH3			LSH4			LLMAL			LMMAL			LCAL			LMTP5			LTOE			LMTP1			RPSIS			RASIS			RTH1			RTH2			RTH3			RTH4			RLFE			RMFE			RSH1			RSH2			RSH3			RSH4			RLMAL			RMMAL			RCAL			RMTP1			RTOE			RMTP5		
		X1	Y1	Z1	X2	Y2	Z2	X3	Y3	Z3	X4	Y4	Z4	X5	Y5	Z5	X6	Y6	Z6	X7	Y7	Z7	X8	Y8	Z8	X9	Y9	Z9	X10	Y10	Z10	X11	Y11	Z11	X12	Y12	Z12	X13	Y13	Z13	X14	Y14	Z14	X15	Y15	Z15	X16	Y16	Z16	X17	Y17	Z17	X18	Y18	Z18	X19	Y19	Z19	X20	Y20	Z20	X21	Y21	Z21	X22	Y22	Z22	X23	Y23	Z23	X24	Y24	Z24	X25	Y25	Z25	X26	Y26	Z26	X27	Y27	Z27	X28	Y28	Z28	X29	Y29	Z29	X30	Y30	Z30	X31	Y31	Z31	X32	Y32	Z32	X33	Y33	Z33	X34	Y34	Z34	X35	Y35	Z35	X36	Y36	Z36

1010	8.40833	0.00000	0.00000	0.00000	-4452.46680	955.43762	410.77756	-4486.55859	602.10040	458.38055	-4507.40967	564.94574	452.32001	-4544.03711	624.32593	444.26096	-4551.64307	584.70374	439.23328	-4550.74609	503.54526	434.30612	-4546.93213	499.67645	322.70108	-4467.72217	432.70157	449.36026	-4457.96680	387.44232	454.53848	-4524.98486	411.55191	439.18649	-4509.62549	373.12039	443.06171	-4369.35254	146.16196	410.69305	-4395.97168	154.56828	328.40366	0.00000	0.00000	0.00000	-4453.56885	64.37731	426.15549	0.00000	0.00000	0.00000	-4475.67627	74.15215	334.80017	0.00000	0.00000	0.00000	-4443.09863	970.22717	150.39282	0.00000	0.00000	0.00000	-4310.91455	553.29816	136.44246	-4370.42676	592.34686	140.70964	-4363.05371	547.07556	140.88255	-4328.26367	436.71210	171.00597	0.00000	0.00000	0.00000	-4300.94922	285.27075	193.44467	0.00000	0.00000	0.00000	-4356.99658	276.86182	203.66904	-4349.65234	231.49829	201.52313	-4285.70654	102.36282	203.43819	0.00000	0.00000	0.00000	-4230.46777	87.15189	255.50972	0.00000	0.00000	0.00000	-4394.68457	9.77032	227.00975	-4414.07275	57.27573	186.42300
1011	8.41667	0.00000	0.00000	0.00000	-4460.19238	955.18854	410.52277	-4496.29492	602.87262	458.37012	-4517.55127	565.94824	452.30600	-4553.62402	625.67426	444.14490	-4561.46387	586.16486	439.09421	-4561.58643	505.02701	434.12915	-4557.99072	500.87592	322.74951	-4480.81982	430.81662	448.67786	-4473.13232	385.13962	453.85669	-4539.09131	412.35803	439.08417	-4525.46338	373.18347	442.83508	-4396.19922	139.77286	409.62045	-4422.84570	149.36229	327.37317	-4330.47803	153.91902	356.98410	-4482.79346	60.58535	424.12863	0.00000	0.00000	0.00000	-4506.47314	73.38447	335.07632	0.00000	0.00000	0.00000	-4451.28564	969.64435	150.05580	0.00000	0.00000	0.00000	0.00000	0.00000	0.00000	-4375.63721	592.06042	140.50938	-4367.85010	546.84149	140.69461	-4331.91846	436.77957	170.89856	0.00000	0.00000	0.00000	-4303.27539	285.67642	193.27133	0.00000	0.00000	0.00000	-4359.17725	276.70779	203.61487	-4351.43604	231.45688	201.48839	-4285.88916	102.52728	203.47665	0.00000	0.00000	0.00000	-4230.61084	87.36876	255.50420	0.00000	0.00000	0.00000	-4394.82471	9.60302	227.05191	-4414.18066	57.19188	186.46487
1012	8.42500	0.00000	0.00000	0.00000	-4468.02588	954.85522	410.32828	-4505.76953	603.43640	458.35614	-4527.22998	566.68939	452.26462	-4562.84326	626.69958	444.02890	-4570.96973	587.38055	438.89758	-4571.92725	506.22720	433.90479	-4568.57031	501.87619	322.78946	-4493.65381	428.58990	448.01324	-4488.13965	382.55383	453.12119	-4552.76855	412.96719	438.97739	-4541.02979	373.14023	442.62003	-4423.25635	133.74329	408.62967	-4449.80469	144.14314	326.42291	-4357.52637	145.13480	355.22736	-4513.74609	60.47473	424.80411	0.00000	0.00000	0.00000	-4537.18115	73.16679	335.48755	0.00000	0.00000	0.00000	-4459.49121	969.00104	149.78226	0.00000	0.00000	0.00000	0.00000	0.00000	0.00000	-4380.84277	591.67981	140.37843	-4372.59131	546.54401	140.56171	-4337.10938	438.80023	169.11150	0.00000	0.00000	0.00000	-4305.53467	286.00153	193.15610	0.00000	0.00000	0.00000	-4361.35059	276.51370	203.56853	-4353.14990	231.37820	201.46942	-4286.10596	102.69683	203.48904	-4303.08301	106.07024	284.82825	-4230.75244	87.56030	255.50067	0.00000	0.00000	0.00000	-4396.02539	10.50451	227.15091	-4414.28369	57.14621	186.51154
1013	8.43333	0.00000	0.00000	0.00000	-4475.84912	954.43079	410.16168	-4514.82568	603.79248	458.31442	-4536.52197	567.20923	452.16876	-4571.73633	627.46765	443.90921	-4580.09180	588.21857	438.78955	-4581.80029	507.13019	433.66382	-4578.75830	502.68475	322.77319	-4506.41895	426.23151	447.37625	-4503.06738	379.89600	452.49927	-4566.16260	413.44284	438.80530	-4556.41406	373.02280	442.38809	-4450.48975	128.16632	407.72217	-4477.06738	139.26897	325.61972	-4384.77051	136.83171	353.59064	-4542.80566	60.79184	425.04611	-4506.84570	-3.77828	429.19647	0.00000	0.00000	0.00000	0.00000	0.00000	0.00000	-4467.77979	968.34680	149.49707	0.00000	0.00000	0.00000	0.00000	0.00000	0.00000	-4386.11230	591.32190	140.26813	-4377.45850	546.24579	140.45517	-4339.41846	436.97305	170.64668	0.00000	0.00000	0.00000	-4307.87988	286.35828	193.07677	0.00000	0.00000	0.00000	-4363.58936	276.40265	203.52850	-4354.93115	231.31728	201.44235	-4286.28125	102.83691	203.49068	-4303.27051	106.19598	284.84036	-4230.86279	87.76181	255.49716	-4416.52930	34.91404	272.50653	0.00000	0.00000	0.00000	-4414.38037	57.04219	186.57922
1014	8.44167	0.00000	0.00000	0.00000	-4483.81396	953.99298	410.00107	-4523.54785	603.88690	458.17569	-4545.33350	567.37811	452.03781	-4580.26123	627.87903	443.79050	-4588.78418	588.74945	438.64255	-4591.22314	507.76685	433.40027	-4588.50244	503.22131	322.70074	-4519.00684	423.60474	446.77917	-4517.90088	377.12936	451.88977	-4579.27637	413.75784	438.59662	-4571.50244	372.87601	442.11853	-4484.95166	124.62742	406.52185	-4499.35010	139.90686	323.87027	-4412.15723	129.09264	352.16739	-4572.80469	60.90975	425.42099	-4538.54688	-3.36317	429.53461	0.00000	0.00000	0.00000	0.00000	0.00000	0.00000	-4476.08252	967.60864	149.24803	0.00000	0.00000	0.00000	0.00000	0.00000	0.00000	-4391.35303	590.91907	140.19560	-4382.34521	545.94006	140.40166	-4343.17773	437.03531	170.63440	0.00000	0.00000	0.00000	-4310.25586	286.80869	192.92215	0.00000	0.00000	0.00000	-4365.78955	276.23935	203.48129	-4356.65039	231.26093	201.40199	-4286.46436	103.01234	203.47400	-4303.47168	106.33369	284.83557	-4230.96777	87.97717	255.49013	-4416.67627	34.79781	272.50516	0.00000	0.00000	0.00000	-4414.46875	56.95414	186.61766
1015	8.45000	0.00000	0.00000	0.00000	-4491.75391	953.37439	409.81354	-4531.80322	603.62256	458.03555	-4553.89795	567.32587	451.86862	-4588.54102	627.99463	443.71030	-4597.12500	588.92224	438.46405	-4600.14893	507.99115	433.05945	-4597.86035	503.51825	322.55969	-4531.48340	420.79480	446.22821	-4532.54395	374.18259	451.20868	-4592.13623	414.00110	438.34628	-4586.41260	372.74164	441.85101	-4513.01025	120.12363	405.83655	-4526.51416	136.75279	323.38782	-4439.60254	121.98443	350.94510	-4601.62354	60.96860	424.55045	-4570.05518	-2.32487	429.78009	0.00000	0.00000	0.00000	0.00000	0.00000	0.00000	-4484.35352	966.81165	149.03767	0.00000	0.00000	0.00000	0.00000	0.00000	0.00000	-4396.68213	590.49005	140.10501	-4387.16699	545.55676	140.30040	-4347.00195	437.11414	170.51399	-4349.02441	438.84830	258.07614	-4312.77393	287.41040	192.40825	0.00000	0.00000	0.00000	-4368.05811	276.13168	203.46718	-4358.43018	231.21159	201.40613	-4286.71045	103.22707	203.43399	-4303.66846	106.43706	284.81998	-4231.10107	88.20055	255.47568	-4416.81738	34.63740	272.52930	0.00000	0.00000	0.00000	0.00000	0.00000	0.00000
1016	8.45833	0.00000	0.00000	0.00000	-4500.02441	952.19910	409.54791	-4539.79248	603.17828	457.84650	-4561.98877	566.92145	451.68036	-4596.45215	627.70331	443.61798	-4605.08691	588.72131	438.32910	-4608.72168	507.96539	432.70312	-4606.87256	503.47220	322.35654	-4543.90088	417.93298	445.67316	-4547.14307	371.34164	450.63239	-4604.73340	414.09918	438.05444	-4601.00732	372.53546	441.52164	0.00000	0.00000	0.00000	-4553.52148	134.22839	322.96964	-4467.00586	115.44175	350.04465	-4631.77393	64.79577	427.66867	-4601.16602	-0.72285	429.93143	0.00000	0.00000	0.00000	0.00000	0.00000	0.00000	-4492.71387	966.04730	148.81273	0.00000	0.00000	0.00000	0.00000	0.00000	0.00000	-4402.02930	590.09662	140.02565	-4392.04004	545.18689	140.23824	-4350.82812	437.21222	170.40584	-4354.73047	440.50580	258.12799	-4315.08740	287.67422	192.63773	0.00000	0.00000	0.00000	-4370.26758	276.00101	203.42899	-4360.29590	231.28665	201.34235	-4286.90967	103.41729	203.38609	-4303.85693	106.58656	284.77814	-4231.26611	88.49544	255.43188	-4416.94482	34.53424	272.54733	0.00000	0.00000	0.00000	0.00000	0.00000	0.00000
1017	8.46667	0.00000	0.00000	0.00000	-4508.21045	951.43390	409.36243	-4547.45264	602.46088	457.56100	-4569.62354	566.18738	451.39633	-4603.98877	627.00134	443.49689	-4612.74023	588.10754	438.16833	-4616.91943	507.57947	432.25946	-4615.56738	503.08273	322.11203	-4556.22656	414.94366	445.14392	-4561.62305	368.51331	450.05643	-4617.01172	414.10394	437.70145	-4615.39404	372.36029	441.15814	0.00000	0.00000	0.00000	-4580.17188	132.36568	322.57928	-4494.38037	109.56325	349.39053	-4661.12598	67.01974	427.72794	-4631.88281	1.51538	429.95139	0.00000	0.00000	0.00000	0.00000	0.00000	0.00000	-4500.99268	965.18317	148.57753	0.00000	0.00000	0.00000	0.00000	0.00000	0.00000	-4407.39355	589.63611	139.93694	-4396.98242	544.74084	140.12564	-4354.66260	437.20673	170.39958	-4360.28076	441.81885	258.15875	-4317.53271	288.06140	192.50549	0.00000	0.00000	0.00000	-4373.05078	276.61853	203.00206	-4362.11084	231.28848	201.36069	-4287.15088	103.61718	203.35617	-4304.05811	106.74304	284.72937	-4231.39014	88.75834	255.40750	-4417.06641	34.39301	272.54739	0.00000	0.00000	0.00000	0.00000	0.00000	0.00000
1018	8.47500	0.00000	0.00000	0.00000	-4516.43701	950.53961	409.14432	-4554.69678	601.42194	457.17780	-4576.93066	565.17548	451.03064	-4611.23047	625.96252	443.30902	-4619.92773	587.13361	437.95786	-4624.79102	506.89294	431.71298	-4630.50049	505.31857	321.40710	-4568.48486	411.85834	444.65228	-4576.01562	365.63400	449.47845	-4629.13867	414.04999	437.36926	-4629.49072	372.11447	440.78186	0.00000	0.00000	0.00000	-4606.50732	131.20206	322.16208	-4521.57959	104.37283	348.79312	-4690.18018	69.96701	427.65887	0.00000	0.00000	0.00000	0.00000	0.00000	0.00000	0.00000	0.00000	0.00000	-4506.40234	963.63947	149.43423	0.00000	0.00000	0.00000	0.00000	0.00000	0.00000	-4412.80615	589.17609	139.87997	-4401.81592	544.22394	140.05833	-4358.49023	437.19727	170.31213	-4364.91113	442.46344	258.08774	0.00000	0.00000	0.00000	0.00000	0.00000	0.00000	-4375.60352	276.57477	202.88509	-4364.17676	231.07315	201.45956	-4287.39795	103.78290	203.27467	-4304.27539	106.91321	284.68304	-4231.53613	88.99942	255.35706	-4417.21191	34.26049	272.52850	0.00000	0.00000	0.00000	0.00000	0.00000	0.00000
1019	8.48333	0.00000	0.00000	0.00000	-4524.87549	949.63007	408.90900	-4561.33350	600.96954	454.32114	-4583.89746	563.84564	450.44418	-4618.21631	624.63153	443.08392	-4626.89307	585.83826	437.69730	-4632.35889	505.91565	431.04706	-4638.36816	504.25452	320.97681	-4580.66846	408.73621	444.26086	-4590.19141	362.76660	448.93149	-4640.88965	413.80478	436.99310	-4643.34180	371.92355	440.41232	0.00000	0.00000	0.00000	-4632.37402	130.73769	321.72781	-4548.54785	99.95847	348.29361	0.00000	0.00000	0.00000	-4214.40137	134.19412	334.18774	0.00000	0.00000	0.00000	0.00000	0.00000	0.00000	-4514.55371	962.72095	149.20981	0.00000	0.00000	0.00000	0.00000	0.00000	0.00000	-4418.36475	588.71057	139.88281	-4406.76660	543.74103	140.01384	-4362.48584	437.28873	170.19588	-4369.29053	442.89642	258.03159	0.00000	0.00000	0.00000	0.00000	0.00000	0.00000	-4377.92236	276.42822	202.87289	-4366.05420	231.02396	201.40384	-4287.64453	104.03423	203.20531	-4304.53125	107.16325	284.63580	-4231.69336	89.29915	255.30309	-4417.34814	34.16218	272.54572	0.00000	0.00000	0.00000	0.00000	0.00000	0.00000
